<svg width="1423" height="244" viewBox="0 0 1423 244" fill="none" xmlns="http://www.w3.org/2000/svg">
<mask id="mask0_280_49" style="mask-type:alpha" maskUnits="userSpaceOnUse" x="0" y="0" width="1423" height="244">
<rect width="1423" height="244" fill="#D9D9D9"/>
</mask>
<g mask="url(#mask0_280_49)">
<path fill-rule="evenodd" clip-rule="evenodd" d="M488.319 196.984C480.711 199.568 472.319 201 463.5 201C428.982 201 401 179.062 401 152C401 124.938 428.982 103 463.5 103C495.872 103 522.495 122.295 525.681 147.016C533.289 144.432 541.681 143 550.5 143C585.018 143 613 164.938 613 192C613 219.062 585.018 241 550.5 241C518.128 241 491.505 221.705 488.319 196.984Z" fill="#acdbef"/>
<path fill-rule="evenodd" clip-rule="evenodd" d="M693.319 285.984C685.711 288.568 677.319 290 668.5 290C633.982 290 606 268.062 606 241C606 213.938 633.982 192 668.5 192C700.872 192 727.495 211.295 730.681 236.016C738.289 233.432 746.681 232 755.5 232C790.018 232 818 253.938 818 281C818 308.062 790.018 330 755.5 330C723.128 330 696.505 310.705 693.319 285.984Z" fill="#acdbef"/>
<path fill-rule="evenodd" clip-rule="evenodd" d="M1099.5 222C1153.35 222 1197 187.526 1197 145C1197 102.474 1153.35 68 1099.5 68C1060.1 68 1026.16 86.4552 1010.78 113.016C996.101 106.023 978.895 102 960.5 102C906.652 102 863 136.474 863 179C863 221.526 906.652 256 960.5 256C999.899 256 1033.84 237.545 1049.22 210.984C1063.9 217.977 1081.1 222 1099.5 222Z" fill="#acdbef"/>
<path fill-rule="evenodd" clip-rule="evenodd" d="M219.378 358.54C210.665 360.155 201.681 361 192.5 361C111.59 361 46 295.41 46 214.5C46 133.59 111.59 68 192.5 68C232.213 68 268.235 83.8015 294.622 109.46C303.335 107.845 312.319 107 321.5 107C402.41 107 468 172.59 468 253.5C468 334.41 402.41 400 321.5 400C281.787 400 245.765 384.198 219.378 358.54Z" fill="#cdf0fe"/>
<path fill-rule="evenodd" clip-rule="evenodd" d="M1236.5 341C1317.41 341 1383 275.41 1383 194.5C1383 113.59 1317.41 48 1236.5 48C1183.65 48 1137.33 75.9904 1111.56 117.957C1053.91 123.416 1010 151.579 1010 185.5C1010 217.45 1048.96 244.291 1101.66 251.865C1123.98 304.265 1175.95 341 1236.5 341Z" fill="#cdf0fe"/>
<path fill-rule="evenodd" clip-rule="evenodd" d="M875.997 326.37C855.239 355.771 820.801 375 781.827 375C718.41 375 667 324.088 667 261.285C667 198.481 718.41 147.569 781.827 147.569C814.137 147.569 843.33 160.785 864.196 182.056C879.516 176.898 896.762 174 915 174C978.513 174 1030 209.146 1030 252.5C1030 295.854 978.513 331 915 331C901.308 331 888.176 329.367 875.997 326.37Z" fill="#cdf0fe"/>
<ellipse cx="117.519" cy="293.5" rx="117.519" ry="146.5" fill="#e8f8ff"/>
<ellipse cx="210.842" cy="244.5" rx="93.3237" ry="146.5" fill="#e8f8ff"/>
<ellipse cx="93.4709" cy="146.274" rx="93.4709" ry="146.274" transform="matrix(0.934194 0.356764 -0.349025 0.937114 399.36 117)" fill="#e8f8ff"/>
<path d="M1015.2 283.5C1015.2 334.034 955.293 375 881.39 375C807.487 375 747.577 334.034 747.577 283.5C747.577 232.966 807.487 192 881.39 192C955.293 192 1015.2 232.966 1015.2 283.5Z" fill="#e8f8ff"/>
<path d="M1302.58 216.5C1302.58 267.034 1242.67 308 1168.77 308C1094.86 308 1034.95 267.034 1034.95 216.5C1034.95 165.966 1094.86 125 1168.77 125C1242.67 125 1302.58 165.966 1302.58 216.5Z" fill="#e8f8ff"/>
<path d="M1423 175C1423 248.454 1364.13 308 1291.5 308C1218.87 308 1160 248.454 1160 175C1160 101.546 1218.87 42 1291.5 42C1364.13 42 1423 101.546 1423 175Z" fill="#e8f8ff"/>
<rect y="165" x="1373" width="50" height="80" fill="#e8f8ff"/>
</g>
</svg>
