<svg xmlns="http://www.w3.org/2000/svg" version="1.1" xmlns:xlink="http://www.w3.org/1999/xlink" xmlns:svgjs="http://svgjs.com/svgjs" width="1000" height="1000"><rect width="1000" height="1000" rx="250" ry="250" fill="#ffffff"></rect><g transform="matrix(25,0,0,25,99.99995422363281,99.9948616027832)"><svg xmlns="http://www.w3.org/2000/svg" version="1.1" xmlns:xlink="http://www.w3.org/1999/xlink" xmlns:svgjs="http://svgjs.com/svgjs" width="32" height="32"><svg xmlns="http://www.w3.org/2000/svg" xmlns:xlink="http://www.w3.org/1999/xlink" aria-hidden="true" role="img" class="iconify iconify--heroicons-solid" width="32" height="32" preserveAspectRatio="xMidYMid meet" viewBox="0 0 20 20"><path fill="currentColor" fill-rule="evenodd" d="M12.316 3.051a1 1 0 0 1 .633 1.265l-4 12a1 1 0 1 1-1.898-.632l4-12a1 1 0 0 1 1.265-.633ZM5.707 6.293a1 1 0 0 1 0 1.414L3.414 10l2.293 2.293a1 1 0 1 1-1.414 1.414l-3-3a1 1 0 0 1 0-1.414l3-3a1 1 0 0 1 1.414 0Zm8.586 0a1 1 0 0 1 1.414 0l3 3a1 1 0 0 1 0 1.414l-3 3a1 1 0 1 1-1.414-1.414L16.586 10l-2.293-2.293a1 1 0 0 1 0-1.414Z" clip-rule="evenodd"></path></svg></svg></g></svg>